<svg width="126" height="33" viewBox="0 0 126 33" fill="none" xmlns="http://www.w3.org/2000/svg">
<path d="M0.369941 0.904998H15.8499V20.435H20.4399V32H0.369941V0.904998ZM37.8518 0.454998H41.5868C46.9868 0.454998 50.9168 1.73 53.3768 4.28C55.8368 6.83 57.0668 10.835 57.0668 16.295C57.0668 21.755 55.8218 25.82 53.3318 28.49C50.8718 31.13 46.9568 32.45 41.5868 32.45H37.8518C32.4818 32.45 28.5518 31.13 26.0618 28.49C23.5718 25.82 22.3268 21.755 22.3268 16.295C22.3268 10.835 23.5568 6.83 26.0168 4.28C28.5068 1.73 32.4518 0.454998 37.8518 0.454998ZM38.4368 15.26V20.48C38.4368 20.87 38.5418 21.185 38.7518 21.425C38.9918 21.665 39.2918 21.785 39.6518 21.785C40.0418 21.785 40.3568 21.665 40.5968 21.425C40.8668 21.185 41.0018 20.87 41.0018 20.48V15.26C41.0018 14.9 40.8668 14.6 40.5968 14.36C40.3568 14.12 40.0418 14 39.6518 14C39.2918 14 38.9918 14.12 38.7518 14.36C38.5418 14.6 38.4368 14.9 38.4368 15.26ZM76.1819 14.945V20.435H77.9819V17.33L88.6019 16.925V32C85.3919 32.27 81.0719 32.405 75.6419 32.405C70.2419 32.405 66.1169 31.04 63.2669 28.31C60.4469 25.58 59.0369 21.53 59.0369 16.16C59.0369 10.79 60.4319 6.845 63.2219 4.325C66.0119 1.805 70.1669 0.544997 75.6869 0.544997C77.8769 0.544997 80.0219 0.649998 82.1219 0.859999C84.2219 1.07 85.7819 1.28 86.8019 1.49L88.2869 1.805V14.945H76.1819ZM106.055 0.454998H109.79C115.19 0.454998 119.12 1.73 121.58 4.28C124.04 6.83 125.27 10.835 125.27 16.295C125.27 21.755 124.025 25.82 121.535 28.49C119.075 31.13 115.16 32.45 109.79 32.45H106.055C100.685 32.45 96.7549 31.13 94.2649 28.49C91.7749 25.82 90.5299 21.755 90.5299 16.295C90.5299 10.835 91.7599 6.83 94.2199 4.28C96.7099 1.73 100.655 0.454998 106.055 0.454998ZM106.64 15.26V20.48C106.64 20.87 106.745 21.185 106.955 21.425C107.195 21.665 107.495 21.785 107.855 21.785C108.245 21.785 108.56 21.665 108.8 21.425C109.07 21.185 109.205 20.87 109.205 20.48V15.26C109.205 14.9 109.07 14.6 108.8 14.36C108.56 14.12 108.245 14 107.855 14C107.495 14 107.195 14.12 106.955 14.36C106.745 14.6 106.64 14.9 106.64 15.26Z" fill="white"/>
</svg>
