<svg width="40" height="40" viewBox="0 0 40 40" fill="none" xmlns="http://www.w3.org/2000/svg">
<path d="M22.6834 20.405C22.6734 20.933 22.5068 21.4461 22.2048 21.8793C21.9028 22.3124 21.4789 22.6462 20.987 22.8382C20.4951 23.0303 19.9573 23.072 19.4416 22.958C18.926 22.844 18.4558 22.5795 18.0907 22.198C17.7256 21.8165 17.482 21.3351 17.3907 20.815C17.2995 20.2949 17.3647 19.7594 17.5781 19.2764C17.7915 18.7933 18.1436 18.3846 18.5896 18.1019C19.0356 17.8191 19.5555 17.6752 20.0834 17.6883C20.7849 17.7143 21.4487 18.0125 21.9341 18.5196C22.4195 19.0268 22.6883 19.703 22.6834 20.405Z" fill="white"/>
<path d="M24.6049 12.055H15.5633C14.6686 12.055 13.8106 12.4104 13.178 13.043C12.5453 13.6756 12.1899 14.5337 12.1899 15.4283V24.6733C12.1899 25.1163 12.2772 25.555 12.4467 25.9642C12.6162 26.3735 12.8647 26.7454 13.178 27.0586C13.4912 27.3719 13.8631 27.6204 14.2724 27.7899C14.6816 27.9594 15.1203 28.0467 15.5633 28.0467H24.6049C25.0479 28.0467 25.4866 27.9594 25.8959 27.7899C26.3051 27.6204 26.677 27.3719 26.9902 27.0586C27.3035 26.7454 27.552 26.3735 27.7215 25.9642C27.891 25.555 27.9783 25.1163 27.9783 24.6733V15.445C27.98 15.0007 27.8941 14.5605 27.7254 14.1495C27.5567 13.7385 27.3085 13.3648 26.9952 13.0499C26.6818 12.735 26.3094 12.485 25.8992 12.3143C25.489 12.1435 25.0492 12.0554 24.6049 12.055ZM20.0833 24.9267C19.1882 24.9469 18.3074 24.6999 17.5533 24.2173C16.7992 23.7348 16.206 23.0385 15.8494 22.2173C15.4928 21.3961 15.389 20.4872 15.5511 19.6068C15.7133 18.7263 16.1341 17.9141 16.7599 17.2739C17.3857 16.6336 18.1881 16.1943 19.0647 16.0121C19.9412 15.8299 20.8522 15.913 21.6813 16.2507C22.5104 16.5885 23.2201 17.1657 23.7197 17.9086C24.2194 18.6515 24.4864 19.5264 24.4866 20.4217C24.4939 21.0067 24.3857 21.5875 24.1682 22.1307C23.9507 22.674 23.6283 23.169 23.2193 23.5874C22.8103 24.0059 22.3228 24.3395 21.7846 24.5693C21.2465 24.7991 20.6684 24.9206 20.0833 24.9267ZM24.9766 15.9183C24.8666 15.9183 24.7578 15.8964 24.6564 15.8538C24.555 15.8113 24.4631 15.7489 24.3861 15.6703C24.3091 15.5918 24.2486 15.4987 24.208 15.3965C24.1675 15.2942 24.1477 15.1849 24.1499 15.075C24.1499 14.8513 24.2388 14.6368 24.3969 14.4787C24.5551 14.3205 24.7696 14.2317 24.9933 14.2317C25.2169 14.2317 25.4314 14.3205 25.5896 14.4787C25.7478 14.6368 25.8366 14.8513 25.8366 15.075C25.8399 15.1941 25.8175 15.3124 25.7708 15.422C25.7241 15.5316 25.6543 15.6298 25.5661 15.7099C25.478 15.7899 25.3735 15.85 25.26 15.886C25.1464 15.922 25.0265 15.933 24.9083 15.9183H24.9766Z" fill="white"/>
<path d="M20.0832 3.33334C15.6629 3.31124 11.4149 5.04599 8.2737 8.15597C5.13246 11.2659 3.35532 15.4964 3.33322 19.9167C3.31112 24.3369 5.04587 28.585 8.15584 31.7262C11.2658 34.8674 15.4963 36.6446 19.9165 36.6667C22.1052 36.6776 24.2747 36.2574 26.3009 35.4299C28.3272 34.6024 30.1707 33.3839 31.7261 31.844C33.2815 30.3041 34.5183 28.473 35.366 26.4551C36.2137 24.4371 36.6556 22.272 36.6666 20.0833C36.6775 17.8946 36.2572 15.7252 35.4298 13.6989C34.6023 11.6727 33.3838 9.8292 31.8439 8.27382C30.304 6.71844 28.4728 5.48159 26.4549 4.6339C24.437 3.78621 22.2719 3.34428 20.0832 3.33334ZM30.2049 24.5033C30.2095 25.2511 30.0657 25.9923 29.7818 26.684C29.4978 27.3757 29.0794 28.0042 28.5507 28.533C28.0221 29.0618 27.3937 29.4804 26.7021 29.7646C26.0104 30.0487 25.2693 30.1928 24.5215 30.1883H15.6482C14.9005 30.193 14.1593 30.0492 13.4676 29.7652C12.7758 29.4813 12.1474 29.0628 11.6185 28.5342C11.0897 28.0055 10.6711 27.3772 10.387 26.6855C10.1028 25.9939 9.95879 25.2527 9.96322 24.505V15.63C9.95857 14.8823 10.1024 14.1411 10.3863 13.4494C10.6703 12.7576 11.0887 12.1291 11.6174 11.6003C12.146 11.0715 12.7744 10.6529 13.466 10.3688C14.1577 10.0846 14.8988 9.94058 15.6465 9.94501H24.5215C25.2691 9.94058 26.0102 10.0846 26.7017 10.3686C27.3932 10.6527 28.0215 11.0711 28.5501 11.5998C29.0788 12.1284 29.4972 12.7567 29.7813 13.4482C30.0653 14.1397 30.2093 14.8808 30.2049 15.6283V24.5033Z" fill="white"/>
</svg>
